# xmcd
#
# Track frame offsets:
# 150
# 13000
# 36332
# 55192
# 78687
# 101562
# 115422
# 135060
# 155512
# 171630
# 203162
# 219607
# 233255
# 252237
# 268127
# 295815
#
# Disc length: 4165 seconds
#
#
# Revision: 0
# Processed by: cddbd v1.5.2PL0 Copyright (c) Steve Scherf et al.
# Submitted via: Nero 7, 11, 10, 0 
#
DISCID=e3104310
DTITLE=Al Miller - In Between Time
DYEAR=2000
DGENRE=Blues
TTITLE0=Rockin' All Day
TTITLE1=I Need You So Bad
TTITLE2=My Baby Walked Out
TTITLE3=Old Friends
TTITLE4=In Between Time
TTITLE5=I Got It
TTITLE6=Dead Presidents
TTITLE7=A Better Day
TTITLE8=Tighten' Up On It
TTITLE9='1839'
TTITLE10=Billy's Boogie
TTITLE11=Make It Alright
TTITLE12=Bachelor Blues
TTITLE13=If You Don't Want Me
TTITLE14=Lake Michigan Waters
TTITLE15=Lawhorn Special
EXTD=
EXTT0=Rockin' All Day
EXTT1=I Need You So Bad
EXTT2=My Baby Walked Out
EXTT3=Old Friends
EXTT4=In Between Time
EXTT5=I Got It
EXTT6=Dead Presidents
EXTT7=A Better Day
EXTT8=Tighten' Up On It
EXTT9='1839'
EXTT10=Billy's Boogie
EXTT11=Make It Alright
EXTT12=Bachelor Blues
EXTT13=If You Don't Want Me
EXTT14=Lake Michigan Waters
EXTT15=Lawhorn Special
PLAYORDER=
